<svg width="2056" height="1136" viewBox="0 0 2056 1136" fill="none" xmlns="http://www.w3.org/2000/svg">
<g id="Group 18">
<g id="Group 2">
<path id="Vector" d="M50.4208 99.9998H0.420898V0H50.4208C78.0307 0 100.421 22.3899 100.421 49.9999C100.421 77.6098 78.0307 99.9998 50.4208 99.9998Z" fill="#FFD60A"/>
<path id="Vector_2" d="M165.419 0H215.419V99.9998H165.419C137.809 99.9998 115.419 77.6098 115.419 49.9999C115.419 22.3899 137.809 0 165.419 0Z" fill="#30D158"/>
<path id="Vector_3" d="M230.419 49.9999V0H330.419V49.9999C330.419 77.6098 308.029 99.9998 280.419 99.9998C252.799 99.9998 230.419 77.6098 230.419 49.9999Z" fill="#FF453A"/>
<path id="Vector_4" d="M395.418 0H445.418V99.9998H395.418C367.808 99.9998 345.418 77.6098 345.418 49.9999C345.418 22.3899 367.808 0 395.418 0Z" fill="#5E5CE6"/>
<path id="Vector_5" d="M510.419 0H560.419V99.9998H510.419C482.809 99.9998 460.419 77.6098 460.419 49.9999C460.419 22.3899 482.799 0 510.419 0Z" fill="#0A84FF"/>
<path id="Vector_6" d="M625.419 99.9998H575.419V0H625.419C653.029 0 675.419 22.3899 675.419 49.9999C675.419 77.6098 653.039 99.9998 625.419 99.9998Z" fill="#FF9F0A"/>
<path id="Vector_7" d="M690.418 49.9999V0H790.418V49.9999C790.418 77.6098 768.028 99.9998 740.418 99.9998C712.798 99.9998 690.418 77.6098 690.418 49.9999Z" fill="#FF375F"/>
<path id="Vector_8" d="M905.418 49.9999V99.9998H805.418V49.9999C805.418 22.3899 827.808 0 855.418 0C883.038 0 905.418 22.3899 905.418 49.9999Z" fill="#FFD60A"/>
<path id="Vector_9" d="M970.418 0H1020.42V99.9998H970.418C942.808 99.9998 920.418 77.6098 920.418 49.9999C920.418 22.3899 942.798 0 970.418 0Z" fill="#5E5CE6"/>
<path id="Vector_10" d="M1035.42 49.9999V0H1135.42V49.9999C1135.42 77.6098 1113.03 99.9998 1085.42 99.9998C1057.81 99.9998 1035.42 77.6098 1035.42 49.9999Z" fill="#64D2FF"/>
<path id="Vector_11" d="M1200.42 99.9998H1150.42V0H1200.42C1228.03 0 1250.42 22.3899 1250.42 49.9999C1250.42 77.6098 1228.03 99.9998 1200.42 99.9998Z" fill="#BF5AF2"/>
<path id="Vector_12" d="M1315.42 0H1365.42V99.9998H1315.42C1287.81 99.9998 1265.42 77.6098 1265.42 49.9999C1265.42 22.3899 1287.81 0 1315.42 0Z" fill="#FF453A"/>
<path id="Vector_13" d="M1430.41 99.9998H1380.41V0H1430.41C1458.02 0 1480.41 22.3899 1480.41 49.9999C1480.41 77.6098 1458.02 99.9998 1430.41 99.9998Z" fill="#FF9F0A"/>
<path id="Vector_14" d="M1495.42 49.9999V0H1595.41V49.9999C1595.41 77.6098 1573.02 99.9998 1545.41 99.9998C1517.8 99.9998 1495.42 77.6098 1495.42 49.9999Z" fill="#5E5CE6"/>
<path id="Vector_15" d="M1660.41 0H1710.41V99.9998H1660.41C1632.8 99.9998 1610.42 77.6098 1610.42 49.9999C1610.42 22.3899 1632.8 0 1660.41 0Z" fill="#FF375F"/>
<path id="Vector_16" d="M1825.41 49.9999V99.9998H1725.41V49.9999C1725.41 22.3899 1747.8 0 1775.41 0C1803.02 0 1825.41 22.3899 1825.41 49.9999Z" fill="#30D158"/>
<path id="Vector_17" d="M1840.42 49.9999V0H1940.41V49.9999C1940.41 77.6098 1918.02 99.9998 1890.41 99.9998C1862.8 99.9998 1840.42 77.6098 1840.42 49.9999Z" fill="#FFD60A"/>
<path id="Vector_18" d="M1955.42 49.9999V0H2055.42V49.9999C2055.42 77.6098 2033.03 99.9998 2005.42 99.9998C1977.8 99.9998 1955.42 77.6098 1955.42 49.9999Z" fill="#0A84FF"/>
</g>
<g id="Group 16">
<path id="Vector_19" d="M49.9999 790H0V690H49.9999C77.6098 690 99.9998 712.39 99.9998 740C99.9998 767.61 77.6098 790 49.9999 790Z" fill="#FFD60A"/>
<path id="Vector_20" d="M164.999 689.999H214.999V789.999H164.999C137.389 789.999 114.999 767.609 114.999 739.999C114.999 712.389 137.389 689.999 164.999 689.999Z" fill="#30D158"/>
<path id="Vector_21" d="M229.999 739.999V689.999H329.999V739.999C329.999 767.609 307.609 789.999 279.999 789.999C252.379 789.999 229.999 767.609 229.999 739.999Z" fill="#FF453A"/>
<path id="Vector_22" d="M394.998 689.999H444.998V789.999H394.998C367.388 789.999 344.998 767.609 344.998 739.999C344.998 712.389 367.388 689.999 394.998 689.999Z" fill="#5E5CE6"/>
<path id="Vector_23" d="M509.999 689.999H559.999V789.999H509.999C482.389 789.999 459.999 767.609 459.999 739.999C459.999 712.389 482.379 689.999 509.999 689.999Z" fill="#0A84FF"/>
<path id="Vector_24" d="M624.999 789.999H574.999V689.999H624.999C652.609 689.999 674.999 712.389 674.999 739.999C674.999 767.609 652.619 789.999 624.999 789.999Z" fill="#FF9F0A"/>
<path id="Vector_25" d="M689.997 739.999V689.999H789.997V739.999C789.997 767.609 767.607 789.999 739.997 789.999C712.377 789.999 689.997 767.609 689.997 739.999Z" fill="#FF375F"/>
<path id="Vector_26" d="M904.998 739.999V789.999H804.998V739.999C804.998 712.389 827.388 689.999 854.998 689.999C882.618 689.999 904.998 712.389 904.998 739.999Z" fill="#FFD60A"/>
<path id="Vector_27" d="M969.998 689.999H1020V789.999H969.998C942.388 789.999 919.998 767.609 919.998 739.999C919.998 712.389 942.378 689.999 969.998 689.999Z" fill="#5E5CE6"/>
<path id="Vector_28" d="M1035 739.999V689.999H1135V739.999C1135 767.609 1112.61 789.999 1085 789.999C1057.39 789.999 1035 767.609 1035 739.999Z" fill="#64D2FF"/>
<path id="Vector_29" d="M1200 789.999H1150V689.999H1200C1227.61 689.999 1250 712.389 1250 739.999C1250 767.609 1227.61 789.999 1200 789.999Z" fill="#BF5AF2"/>
<path id="Vector_30" d="M1315 689.999H1365V789.999H1315C1287.39 789.999 1265 767.609 1265 739.999C1265 712.389 1287.39 689.999 1315 689.999Z" fill="#FF453A"/>
<path id="Vector_31" d="M1430 789.999H1380V689.999H1430C1457.61 689.999 1480 712.389 1480 739.999C1480 767.609 1457.61 789.999 1430 789.999Z" fill="#FF9F0A"/>
<path id="Vector_32" d="M1495 739.999V689.999H1595V739.999C1595 767.609 1572.61 789.999 1545 789.999C1517.39 789.999 1495 767.609 1495 739.999Z" fill="#5E5CE6"/>
<path id="Vector_33" d="M1659.99 689.999H1709.99V789.999H1659.99C1632.39 789.999 1610 767.609 1610 739.999C1610 712.389 1632.39 689.999 1659.99 689.999Z" fill="#FF375F"/>
<path id="Vector_34" d="M1825 739.999V789.999H1725V739.999C1725 712.389 1747.39 689.999 1775 689.999C1802.61 689.999 1825 712.389 1825 739.999Z" fill="#30D158"/>
<path id="Vector_35" d="M1840 739.999V689.999H1940V739.999C1940 767.609 1917.61 789.999 1890 789.999C1862.39 789.999 1840 767.609 1840 739.999Z" fill="#FFD60A"/>
<path id="Vector_36" d="M1955 739.999V689.999H2054.99V739.999C2054.99 767.609 2032.6 789.999 2004.99 789.999C1977.38 789.999 1955 767.609 1955 739.999Z" fill="#0A84FF"/>
</g>
<g id="Group 17">
<path id="Vector_37" d="M49.9999 1135H0V1035H49.9999C77.6098 1035 99.9998 1057.39 99.9998 1085C99.9998 1112.61 77.6098 1135 49.9999 1135Z" fill="#FFD60A"/>
<path id="Vector_38" d="M164.999 1035H214.999V1135H164.999C137.389 1135 114.999 1112.61 114.999 1085C114.999 1057.39 137.389 1035 164.999 1035Z" fill="#30D158"/>
<path id="Vector_39" d="M229.999 1085V1035H329.999V1085C329.999 1112.61 307.609 1135 279.999 1135C252.379 1135 229.999 1112.61 229.999 1085Z" fill="#FF453A"/>
<path id="Vector_40" d="M394.998 1035H444.998V1135H394.998C367.388 1135 344.998 1112.61 344.998 1085C344.998 1057.39 367.388 1035 394.998 1035Z" fill="#5E5CE6"/>
<path id="Vector_41" d="M509.999 1035H559.999V1135H509.999C482.389 1135 459.999 1112.61 459.999 1085C459.999 1057.39 482.379 1035 509.999 1035Z" fill="#0A84FF"/>
<path id="Vector_42" d="M624.999 1135H574.999V1035H624.999C652.609 1035 674.999 1057.39 674.999 1085C674.999 1112.61 652.619 1135 624.999 1135Z" fill="#FF9F0A"/>
<path id="Vector_43" d="M689.997 1085V1035H789.997V1085C789.997 1112.61 767.607 1135 739.997 1135C712.377 1135 689.997 1112.61 689.997 1085Z" fill="#FF375F"/>
<path id="Vector_44" d="M904.998 1085V1135H804.998V1085C804.998 1057.39 827.388 1035 854.998 1035C882.618 1035 904.998 1057.39 904.998 1085Z" fill="#FFD60A"/>
<path id="Vector_45" d="M969.998 1035H1020V1135H969.998C942.388 1135 919.998 1112.61 919.998 1085C919.998 1057.39 942.378 1035 969.998 1035Z" fill="#5E5CE6"/>
<path id="Vector_46" d="M1035 1085V1035H1135V1085C1135 1112.61 1112.61 1135 1085 1135C1057.39 1135 1035 1112.61 1035 1085Z" fill="#64D2FF"/>
<path id="Vector_47" d="M1200 1135H1150V1035H1200C1227.61 1035 1250 1057.39 1250 1085C1250 1112.61 1227.61 1135 1200 1135Z" fill="#BF5AF2"/>
<path id="Vector_48" d="M1315 1035H1365V1135H1315C1287.39 1135 1265 1112.61 1265 1085C1265 1057.39 1287.39 1035 1315 1035Z" fill="#FF453A"/>
<path id="Vector_49" d="M1430 1135H1380V1035H1430C1457.61 1035 1480 1057.39 1480 1085C1480 1112.61 1457.61 1135 1430 1135Z" fill="#FF9F0A"/>
<path id="Vector_50" d="M1495 1085V1035H1595V1085C1595 1112.61 1572.61 1135 1545 1135C1517.39 1135 1495 1112.61 1495 1085Z" fill="#5E5CE6"/>
<path id="Vector_51" d="M1659.99 1035H1709.99V1135H1659.99C1632.39 1135 1610 1112.61 1610 1085C1610 1057.39 1632.39 1035 1659.99 1035Z" fill="#FF375F"/>
<path id="Vector_52" d="M1825 1085V1135H1725V1085C1725 1057.39 1747.39 1035 1775 1035C1802.61 1035 1825 1057.39 1825 1085Z" fill="#30D158"/>
<path id="Vector_53" d="M1840 1085V1035H1940V1085C1940 1112.61 1917.61 1135 1890 1135C1862.39 1135 1840 1112.61 1840 1085Z" fill="#FFD60A"/>
<path id="Vector_54" d="M1955 1085V1035H2054.99V1085C2054.99 1112.61 2032.6 1135 2004.99 1135C1977.38 1135 1955 1112.61 1955 1085Z" fill="#0A84FF"/>
</g>
<g id="Group 13">
<path id="Vector_55" d="M50.4188 444.999H0.418945V344.999H50.4188C78.0288 344.999 100.419 367.389 100.419 394.999C100.419 422.609 78.0288 444.999 50.4188 444.999Z" fill="#FFD60A"/>
<path id="Vector_56" d="M165.419 344.999H215.419V444.999H165.419C137.809 444.999 115.419 422.609 115.419 394.999C115.419 367.389 137.809 344.999 165.419 344.999Z" fill="#30D158"/>
<path id="Vector_57" d="M230.419 394.999V344.999H330.419V394.999C330.419 422.609 308.029 444.999 280.419 444.999C252.799 444.999 230.419 422.609 230.419 394.999Z" fill="#FF453A"/>
<path id="Vector_58" d="M395.418 344.999H445.418V444.999H395.418C367.808 444.999 345.418 422.609 345.418 394.999C345.418 367.389 367.808 344.999 395.418 344.999Z" fill="#5E5CE6"/>
<path id="Vector_59" d="M510.419 344.999H560.419V444.999H510.419C482.809 444.999 460.419 422.609 460.419 394.999C460.419 367.389 482.799 344.999 510.419 344.999Z" fill="#0A84FF"/>
<path id="Vector_60" d="M625.419 444.999H575.419V344.999H625.419C653.029 344.999 675.419 367.389 675.419 394.999C675.419 422.609 653.039 444.999 625.419 444.999Z" fill="#FF9F0A"/>
<path id="Vector_61" d="M690.418 394.999V344.999H790.418V394.999C790.418 422.609 768.028 444.999 740.418 444.999C712.798 444.999 690.418 422.609 690.418 394.999Z" fill="#FF375F"/>
<path id="Vector_62" d="M905.418 394.999V444.999H805.418V394.999C805.418 367.389 827.808 344.999 855.418 344.999C883.038 344.999 905.418 367.389 905.418 394.999Z" fill="#FFD60A"/>
<path id="Vector_63" d="M970.418 344.999H1020.42V444.999H970.418C942.808 444.999 920.418 422.609 920.418 394.999C920.418 367.389 942.798 344.999 970.418 344.999Z" fill="#5E5CE6"/>
<path id="Vector_64" d="M1035.42 394.999V344.999H1135.42V394.999C1135.42 422.609 1113.03 444.999 1085.42 444.999C1057.81 444.999 1035.42 422.609 1035.42 394.999Z" fill="#64D2FF"/>
<path id="Vector_65" d="M1200.42 444.999H1150.42V344.999H1200.42C1228.03 344.999 1250.42 367.389 1250.42 394.999C1250.42 422.609 1228.03 444.999 1200.42 444.999Z" fill="#BF5AF2"/>
<path id="Vector_66" d="M1315.42 344.999H1365.42V444.999H1315.42C1287.81 444.999 1265.42 422.609 1265.42 394.999C1265.42 367.389 1287.81 344.999 1315.42 344.999Z" fill="#FF453A"/>
<path id="Vector_67" d="M1430.41 444.999H1380.41V344.999H1430.41C1458.02 344.999 1480.41 367.389 1480.41 394.999C1480.41 422.609 1458.02 444.999 1430.41 444.999Z" fill="#FF9F0A"/>
<path id="Vector_68" d="M1495.42 394.999V344.999H1595.41V394.999C1595.41 422.609 1573.02 444.999 1545.41 444.999C1517.8 444.999 1495.42 422.609 1495.42 394.999Z" fill="#5E5CE6"/>
<path id="Vector_69" d="M1660.41 344.999H1710.41V444.999H1660.41C1632.8 444.999 1610.42 422.609 1610.42 394.999C1610.42 367.389 1632.8 344.999 1660.41 344.999Z" fill="#FF375F"/>
<path id="Vector_70" d="M1825.41 394.999V444.999H1725.41V394.999C1725.41 367.389 1747.8 344.999 1775.41 344.999C1803.02 344.999 1825.41 367.389 1825.41 394.999Z" fill="#30D158"/>
<path id="Vector_71" d="M1840.42 394.999V344.999H1940.41V394.999C1940.41 422.609 1918.02 444.999 1890.41 444.999C1862.8 444.999 1840.42 422.609 1840.42 394.999Z" fill="#FFD60A"/>
<path id="Vector_72" d="M1955.42 394.999V344.999H2055.42V394.999C2055.42 422.609 2033.03 444.999 2005.42 444.999C1977.8 444.999 1955.42 422.609 1955.42 394.999Z" fill="#0A84FF"/>
</g>
<g id="Group 11">
<path id="Vector_73" d="M509.999 215H459.999V115H509.999C537.609 115 559.999 137.39 559.999 165C559.999 192.61 537.609 215 509.999 215Z" fill="#FFD60A"/>
<path id="Vector_74" d="M394.998 115H444.998V214.999H394.998C367.388 214.999 344.998 192.609 344.998 164.999C344.998 137.389 367.388 115 394.998 115Z" fill="#30D158"/>
<path id="Vector_75" d="M574.999 164.999V115H674.999V164.999C674.999 192.609 652.609 214.999 624.999 214.999C597.379 214.999 574.999 192.609 574.999 164.999Z" fill="#FF453A"/>
<path id="Vector_76" d="M49.9999 115H99.9998V215H49.9999C22.3899 215 0 192.61 0 165C0 137.39 22.3899 115 49.9999 115Z" fill="#5E5CE6"/>
<path id="Vector_77" d="M279.999 115H329.999V215H279.999C252.389 215 229.999 192.61 229.999 165C229.999 137.39 252.379 115 279.999 115Z" fill="#0A84FF"/>
<path id="Vector_78" d="M1890 214.999H1840V115H1890C1917.61 115 1940 137.389 1940 164.999C1940 192.609 1917.62 214.999 1890 214.999Z" fill="#FF9F0A"/>
<path id="Vector_79" d="M114.999 164.999V115H214.999V164.999C214.999 192.609 192.609 214.999 164.999 214.999C137.379 214.999 114.999 192.609 114.999 164.999Z" fill="#FF375F"/>
<path id="Vector_80" d="M789.997 165V215H689.997V165C689.997 137.39 712.387 115 739.997 115C767.617 115 789.997 137.39 789.997 165Z" fill="#FFD60A"/>
<path id="Vector_81" d="M969.998 115H1020V215H969.998C942.388 215 919.998 192.61 919.998 165C919.998 137.39 942.378 115 969.998 115Z" fill="#5E5CE6"/>
<path id="Vector_82" d="M804.998 165V115H904.998V165C904.998 192.61 882.608 215 854.998 215C827.388 215 804.998 192.61 804.998 165Z" fill="#64D2FF"/>
<path id="Vector_83" d="M1315 215H1265V115H1315C1342.61 115 1365 137.39 1365 165C1365 192.61 1342.61 215 1315 215Z" fill="#BF5AF2"/>
<path id="Vector_84" d="M1430 115H1480V215H1430C1402.39 215 1380 192.61 1380 165C1380 137.39 1402.39 115 1430 115Z" fill="#FF453A"/>
<path id="Vector_85" d="M1200 215H1150V115H1200C1227.61 115 1250 137.39 1250 165C1250 192.61 1227.61 215 1200 215Z" fill="#FF9F0A"/>
<path id="Vector_86" d="M1035 165V115H1135V165C1135 192.61 1112.61 215 1085 215C1057.39 215 1035 192.61 1035 165Z" fill="#5E5CE6"/>
<path id="Vector_87" d="M2004.99 115H2054.99V215H2004.99C1977.39 215 1955 192.61 1955 165C1955 137.39 1977.39 115 2004.99 115Z" fill="#FF375F"/>
<path id="Vector_88" d="M1595 165V215H1495V165C1495 137.39 1517.39 115 1545 115C1572.61 115 1595 137.39 1595 165Z" fill="#30D158"/>
<path id="Vector_89" d="M1610 165V115H1709.99V165C1709.99 192.61 1687.6 215 1659.99 215C1632.39 215 1610 192.61 1610 165Z" fill="#FFD60A"/>
<path id="Vector_90" d="M1725 165V115H1825V165C1825 192.61 1802.61 215 1775 215C1747.38 215 1725 192.61 1725 165Z" fill="#0A84FF"/>
</g>
<g id="Group 14">
<path id="Vector_91" d="M509.999 559.998H459.999V459.999H509.999C537.609 459.999 559.999 482.388 559.999 509.998C559.999 537.608 537.609 559.998 509.999 559.998Z" fill="#FFD60A"/>
<path id="Vector_92" d="M394.998 459.998H444.998V559.998H394.998C367.388 559.998 344.998 537.608 344.998 509.998C344.998 482.388 367.388 459.998 394.998 459.998Z" fill="#30D158"/>
<path id="Vector_93" d="M574.999 509.998V459.998H674.999V509.998C674.999 537.608 652.609 559.998 624.999 559.998C597.379 559.998 574.999 537.608 574.999 509.998Z" fill="#FF453A"/>
<path id="Vector_94" d="M49.9999 459.998H99.9998V559.998H49.9999C22.3899 559.998 0 537.608 0 509.998C0 482.388 22.3899 459.998 49.9999 459.998Z" fill="#5E5CE6"/>
<path id="Vector_95" d="M279.999 460H329.999V559.999H279.999C252.389 559.999 229.999 537.609 229.999 509.999C229.999 482.389 252.379 460 279.999 460Z" fill="#0A84FF"/>
<path id="Vector_96" d="M1890 559.998H1840V459.998H1890C1917.61 459.998 1940 482.388 1940 509.998C1940 537.608 1917.62 559.998 1890 559.998Z" fill="#FF9F0A"/>
<path id="Vector_97" d="M114.999 509.998V459.998H214.999V509.998C214.999 537.608 192.609 559.998 164.999 559.998C137.379 559.998 114.999 537.608 114.999 509.998Z" fill="#FF375F"/>
<path id="Vector_98" d="M789.997 509.998V559.998H689.997V509.998C689.997 482.388 712.387 459.999 739.997 459.999C767.617 459.999 789.997 482.388 789.997 509.998Z" fill="#FFD60A"/>
<path id="Vector_99" d="M969.998 459.999H1020V559.998H969.998C942.388 559.998 919.998 537.608 919.998 509.998C919.998 482.388 942.378 459.999 969.998 459.999Z" fill="#5E5CE6"/>
<path id="Vector_100" d="M804.998 509.998V459.999H904.998V509.998C904.998 537.608 882.608 559.998 854.998 559.998C827.388 559.998 804.998 537.608 804.998 509.998Z" fill="#64D2FF"/>
<path id="Vector_101" d="M1315 559.998H1265V459.999H1315C1342.61 459.999 1365 482.388 1365 509.998C1365 537.608 1342.61 559.998 1315 559.998Z" fill="#BF5AF2"/>
<path id="Vector_102" d="M1430 459.999H1480V559.998H1430C1402.39 559.998 1380 537.608 1380 509.998C1380 482.388 1402.39 459.999 1430 459.999Z" fill="#FF453A"/>
<path id="Vector_103" d="M1200 559.998H1150V459.999H1200C1227.61 459.999 1250 482.388 1250 509.998C1250 537.608 1227.61 559.998 1200 559.998Z" fill="#FF9F0A"/>
<path id="Vector_104" d="M1035 509.998V459.999H1135V509.998C1135 537.608 1112.61 559.998 1085 559.998C1057.39 559.998 1035 537.608 1035 509.998Z" fill="#5E5CE6"/>
<path id="Vector_105" d="M2004.99 459.999H2054.99V559.998H2004.99C1977.39 559.998 1955 537.608 1955 509.998C1955 482.388 1977.39 459.999 2004.99 459.999Z" fill="#FF375F"/>
<path id="Vector_106" d="M1595 509.998V559.998H1495V509.998C1495 482.388 1517.39 459.999 1545 459.999C1572.61 459.999 1595 482.388 1595 509.998Z" fill="#30D158"/>
<path id="Vector_107" d="M1610 509.999V460H1709.99V509.999C1709.99 537.609 1687.6 559.999 1659.99 559.999C1632.39 559.999 1610 537.609 1610 509.999Z" fill="#FFD60A"/>
<path id="Vector_108" d="M1725 509.999V460H1825V509.999C1825 537.609 1802.61 559.999 1775 559.999C1747.38 559.999 1725 537.609 1725 509.999Z" fill="#0A84FF"/>
</g>
<g id="Group 18_2">
<path id="Vector_109" d="M509.999 905H459.999V805H509.999C537.609 805 559.999 827.39 559.999 855C559.999 882.61 537.609 905 509.999 905Z" fill="#FFD60A"/>
<path id="Vector_110" d="M394.998 805H444.998V905H394.998C367.388 905 344.998 882.61 344.998 855C344.998 827.39 367.388 805 394.998 805Z" fill="#30D158"/>
<path id="Vector_111" d="M574.999 855V805H674.999V855C674.999 882.61 652.609 905 624.999 905C597.379 905 574.999 882.61 574.999 855Z" fill="#FF453A"/>
<path id="Vector_112" d="M49.9999 805H99.9998V905H49.9999C22.3899 905 0 882.61 0 855C0 827.39 22.3899 805 49.9999 805Z" fill="#5E5CE6"/>
<path id="Vector_113" d="M279.999 805.001H329.999V905.001H279.999C252.389 905.001 229.999 882.611 229.999 855.001C229.999 827.391 252.379 805.001 279.999 805.001Z" fill="#0A84FF"/>
<path id="Vector_114" d="M1890 905H1840V805H1890C1917.61 805 1940 827.39 1940 855C1940 882.61 1917.62 905 1890 905Z" fill="#FF9F0A"/>
<path id="Vector_115" d="M114.999 855V805H214.999V855C214.999 882.61 192.609 905 164.999 905C137.379 905 114.999 882.61 114.999 855Z" fill="#FF375F"/>
<path id="Vector_116" d="M789.997 855V905H689.997V855C689.997 827.39 712.387 805 739.997 805C767.617 805 789.997 827.39 789.997 855Z" fill="#FFD60A"/>
<path id="Vector_117" d="M969.998 805H1020V905H969.998C942.388 905 919.998 882.61 919.998 855C919.998 827.39 942.378 805 969.998 805Z" fill="#5E5CE6"/>
<path id="Vector_118" d="M804.998 855V805H904.998V855C904.998 882.61 882.608 905 854.998 905C827.388 905 804.998 882.61 804.998 855Z" fill="#64D2FF"/>
<path id="Vector_119" d="M1315 905H1265V805H1315C1342.61 805 1365 827.39 1365 855C1365 882.61 1342.61 905 1315 905Z" fill="#BF5AF2"/>
<path id="Vector_120" d="M1430 805H1480V905H1430C1402.39 905 1380 882.61 1380 855C1380 827.39 1402.39 805 1430 805Z" fill="#FF453A"/>
<path id="Vector_121" d="M1200 905H1150V805H1200C1227.61 805 1250 827.39 1250 855C1250 882.61 1227.61 905 1200 905Z" fill="#FF9F0A"/>
<path id="Vector_122" d="M1035 855V805H1135V855C1135 882.61 1112.61 905 1085 905C1057.39 905 1035 882.61 1035 855Z" fill="#5E5CE6"/>
<path id="Vector_123" d="M2004.99 805H2054.99V905H2004.99C1977.39 905 1955 882.61 1955 855C1955 827.39 1977.39 805 2004.99 805Z" fill="#FF375F"/>
<path id="Vector_124" d="M1595 855V905H1495V855C1495 827.39 1517.39 805 1545 805C1572.61 805 1595 827.39 1595 855Z" fill="#30D158"/>
<path id="Vector_125" d="M1610 855.001V805.001H1709.99V855.001C1709.99 882.611 1687.6 905.001 1659.99 905.001C1632.39 905.001 1610 882.611 1610 855.001Z" fill="#FFD60A"/>
<path id="Vector_126" d="M1725 855.001V805.001H1825V855.001C1825 882.611 1802.61 905.001 1775 905.001C1747.38 905.001 1725 882.611 1725 855.001Z" fill="#0A84FF"/>
</g>
<g id="Group 12">
<path id="Vector_127" d="M1200 329.994H1150V229.999H1200C1227.61 229.999 1250 252.388 1250 279.996C1250 307.605 1227.61 329.994 1200 329.994Z" fill="#FFD60A"/>
<path id="Vector_128" d="M49.9999 229.997H99.9998V329.992H49.9999C22.3899 329.992 0 307.603 0 279.994C0 252.386 22.3899 229.997 49.9999 229.997Z" fill="#30D158"/>
<path id="Vector_129" d="M459.999 279.994V229.997H559.999V279.994C559.999 307.603 537.609 329.992 509.999 329.992C482.379 329.992 459.999 307.603 459.999 279.994Z" fill="#FF453A"/>
<path id="Vector_130" d="M739.997 229.997H789.997V329.992H739.997C712.387 329.992 689.997 307.603 689.997 279.994C689.997 252.386 712.387 229.997 739.997 229.997Z" fill="#5E5CE6"/>
<path id="Vector_131" d="M164.999 229.996H214.999V329.991H164.999C137.389 329.991 114.999 307.602 114.999 279.993C114.999 252.385 137.379 229.996 164.999 229.996Z" fill="#0A84FF"/>
<path id="Vector_132" d="M279.999 329.991H229.999V229.996H279.999C307.609 229.996 329.999 252.385 329.999 279.993C329.999 307.602 307.619 329.991 279.999 329.991Z" fill="#FF9F0A"/>
<path id="Vector_133" d="M804.998 279.994V229.997H904.998V279.994C904.998 307.603 882.608 329.992 854.998 329.992C827.378 329.992 804.998 307.603 804.998 279.994Z" fill="#FF375F"/>
<path id="Vector_134" d="M674.999 279.994V329.992H574.999V279.994C574.999 252.386 597.389 229.997 624.999 229.997C652.619 229.997 674.999 252.386 674.999 279.994Z" fill="#FFD60A"/>
<path id="Vector_135" d="M1659.99 229.997H1709.99V329.992H1659.99C1632.39 329.992 1610 307.603 1610 279.994C1610 252.386 1632.38 229.997 1659.99 229.997Z" fill="#5E5CE6"/>
<path id="Vector_136" d="M1840 279.995V229.997H1940V279.995C1940 307.604 1917.61 329.992 1890 329.992C1862.39 329.992 1840 307.604 1840 279.995Z" fill="#64D2FF"/>
<path id="Vector_137" d="M969.998 329.992H919.998V229.997H969.998C997.608 229.997 1020 252.386 1020 279.994C1020 307.603 997.608 329.992 969.998 329.992Z" fill="#BF5AF2"/>
<path id="Vector_138" d="M2004.99 229.998H2054.99V329.993H2004.99C1977.39 329.993 1955 307.605 1955 279.996C1955 252.387 1977.39 229.998 2004.99 229.998Z" fill="#FF453A"/>
<path id="Vector_139" d="M1430 329.992H1380V229.997H1430C1457.61 229.997 1480 252.386 1480 279.995C1480 307.604 1457.61 329.992 1430 329.992Z" fill="#FF9F0A"/>
<path id="Vector_140" d="M344.998 279.997V229.999H444.998V279.997C444.998 307.606 422.608 329.994 394.998 329.994C367.388 329.994 344.998 307.606 344.998 279.997Z" fill="#5E5CE6"/>
<path id="Vector_141" d="M1085 229.999H1135V329.994H1085C1057.39 329.994 1035 307.605 1035 279.996C1035 252.388 1057.39 229.999 1085 229.999Z" fill="#FF375F"/>
<path id="Vector_142" d="M1365 279.996V329.994H1265V279.996C1265 252.388 1287.39 229.999 1315 229.999C1342.61 229.999 1365 252.388 1365 279.996Z" fill="#30D158"/>
<path id="Vector_143" d="M1495 279.996V229.999H1595V279.996C1595 307.605 1572.61 329.994 1545 329.994C1517.39 329.994 1495 307.605 1495 279.996Z" fill="#FFD60A"/>
<path id="Vector_144" d="M1725 279.996V229.999H1825V279.996C1825 307.605 1802.61 329.994 1775 329.994C1747.38 329.994 1725 307.605 1725 279.996Z" fill="#0A84FF"/>
</g>
<g id="Group 15">
<path id="Vector_145" d="M1200 674.998H1150V574.999H1200C1227.61 574.999 1250 597.388 1250 624.998C1250 652.608 1227.61 674.998 1200 674.998Z" fill="#FFD60A"/>
<path id="Vector_146" d="M49.9999 574.997H99.9998V674.997H49.9999C22.3899 674.997 0 652.607 0 624.997C0 597.387 22.3899 574.997 49.9999 574.997Z" fill="#30D158"/>
<path id="Vector_147" d="M459.999 624.996V574.997H559.999V624.996C559.999 652.606 537.609 674.996 509.999 674.996C482.379 674.996 459.999 652.606 459.999 624.996Z" fill="#FF453A"/>
<path id="Vector_148" d="M739.997 574.997H789.997V674.996H739.997C712.387 674.996 689.997 652.606 689.997 624.996C689.997 597.387 712.387 574.997 739.997 574.997Z" fill="#5E5CE6"/>
<path id="Vector_149" d="M164.999 574.996H214.999V674.995H164.999C137.389 674.995 114.999 652.605 114.999 624.995C114.999 597.386 137.379 574.996 164.999 574.996Z" fill="#0A84FF"/>
<path id="Vector_150" d="M279.999 674.995H229.999V574.996H279.999C307.609 574.996 329.999 597.386 329.999 624.995C329.999 652.605 307.619 674.995 279.999 674.995Z" fill="#FF9F0A"/>
<path id="Vector_151" d="M804.998 624.996V574.997H904.998V624.996C904.998 652.606 882.608 674.996 854.998 674.996C827.378 674.996 804.998 652.606 804.998 624.996Z" fill="#FF375F"/>
<path id="Vector_152" d="M674.999 624.996V674.996H574.999V624.996C574.999 597.387 597.389 574.997 624.999 574.997C652.619 574.997 674.999 597.387 674.999 624.996Z" fill="#FFD60A"/>
<path id="Vector_153" d="M1659.99 574.997H1709.99V674.996H1659.99C1632.39 674.996 1610 652.606 1610 624.996C1610 597.387 1632.38 574.997 1659.99 574.997Z" fill="#5E5CE6"/>
<path id="Vector_154" d="M1840 624.997V574.997H1940V624.997C1940 652.607 1917.61 674.997 1890 674.997C1862.39 674.997 1840 652.607 1840 624.997Z" fill="#64D2FF"/>
<path id="Vector_155" d="M969.998 674.996H919.998V574.997H969.998C997.608 574.997 1020 597.387 1020 624.996C1020 652.606 997.608 674.996 969.998 674.996Z" fill="#BF5AF2"/>
<path id="Vector_156" d="M2004.99 574.998H2054.99V674.998H2004.99C1977.39 674.998 1955 652.608 1955 624.998C1955 597.388 1977.39 574.998 2004.99 574.998Z" fill="#FF453A"/>
<path id="Vector_157" d="M1430 674.997H1380V574.997H1430C1457.61 574.997 1480 597.387 1480 624.997C1480 652.607 1457.61 674.997 1430 674.997Z" fill="#FF9F0A"/>
<path id="Vector_158" d="M344.998 624.999V574.999H444.998V624.999C444.998 652.609 422.608 674.999 394.998 674.999C367.388 674.999 344.998 652.609 344.998 624.999Z" fill="#5E5CE6"/>
<path id="Vector_159" d="M1085 574.999H1135V674.998H1085C1057.39 674.998 1035 652.608 1035 624.998C1035 597.388 1057.39 574.999 1085 574.999Z" fill="#FF375F"/>
<path id="Vector_160" d="M1365 624.998V674.998H1265V624.998C1265 597.388 1287.39 574.999 1315 574.999C1342.61 574.999 1365 597.388 1365 624.998Z" fill="#30D158"/>
<path id="Vector_161" d="M1495 624.998V574.999H1595V624.998C1595 652.608 1572.61 674.998 1545 674.998C1517.39 674.998 1495 652.608 1495 624.998Z" fill="#FFD60A"/>
<path id="Vector_162" d="M1725 624.998V574.999H1825V624.998C1825 652.608 1802.61 674.998 1775 674.998C1747.38 674.998 1725 652.608 1725 624.998Z" fill="#0A84FF"/>
</g>
<g id="Group 19">
<path id="Vector_163" d="M1200 1020H1150V920H1200C1227.61 920 1250 942.39 1250 970C1250 997.61 1227.61 1020 1200 1020Z" fill="#FFD60A"/>
<path id="Vector_164" d="M49.9999 919.999H99.9998V1020H49.9999C22.3899 1020 0 997.609 0 969.999C0 942.389 22.3899 919.999 49.9999 919.999Z" fill="#30D158"/>
<path id="Vector_165" d="M459.999 969.998V919.999H559.999V969.998C559.999 997.608 537.609 1020 509.999 1020C482.379 1020 459.999 997.608 459.999 969.998Z" fill="#FF453A"/>
<path id="Vector_166" d="M739.997 919.999H789.997V1020H739.997C712.387 1020 689.997 997.608 689.997 969.998C689.997 942.388 712.387 919.999 739.997 919.999Z" fill="#5E5CE6"/>
<path id="Vector_167" d="M164.999 919.998H214.999V1020H164.999C137.389 1020 114.999 997.607 114.999 969.997C114.999 942.388 137.379 919.998 164.999 919.998Z" fill="#0A84FF"/>
<path id="Vector_168" d="M279.999 1020H229.999V919.998H279.999C307.609 919.998 329.999 942.388 329.999 969.997C329.999 997.607 307.619 1020 279.999 1020Z" fill="#FF9F0A"/>
<path id="Vector_169" d="M804.998 969.998V919.999H904.998V969.998C904.998 997.608 882.608 1020 854.998 1020C827.378 1020 804.998 997.608 804.998 969.998Z" fill="#FF375F"/>
<path id="Vector_170" d="M674.999 969.998V1020H574.999V969.998C574.999 942.388 597.389 919.999 624.999 919.999C652.619 919.999 674.999 942.388 674.999 969.998Z" fill="#FFD60A"/>
<path id="Vector_171" d="M1659.99 919.999H1709.99V1020H1659.99C1632.39 1020 1610 997.608 1610 969.998C1610 942.388 1632.38 919.999 1659.99 919.999Z" fill="#5E5CE6"/>
<path id="Vector_172" d="M1840 969.999V919.999H1940V969.999C1940 997.609 1917.61 1020 1890 1020C1862.39 1020 1840 997.609 1840 969.999Z" fill="#64D2FF"/>
<path id="Vector_173" d="M969.998 1020H919.998V919.999H969.998C997.608 919.999 1020 942.388 1020 969.998C1020 997.608 997.608 1020 969.998 1020Z" fill="#BF5AF2"/>
<path id="Vector_174" d="M2004.99 920H2054.99V1020H2004.99C1977.39 1020 1955 997.61 1955 970C1955 942.39 1977.39 920 2004.99 920Z" fill="#FF453A"/>
<path id="Vector_175" d="M1430 1020H1380V919.999H1430C1457.61 919.999 1480 942.389 1480 969.999C1480 997.609 1457.61 1020 1430 1020Z" fill="#FF9F0A"/>
<path id="Vector_176" d="M344.998 970.001V920.001H444.998V970.001C444.998 997.611 422.608 1020 394.998 1020C367.388 1020 344.998 997.611 344.998 970.001Z" fill="#5E5CE6"/>
<path id="Vector_177" d="M1085 920H1135V1020H1085C1057.39 1020 1035 997.61 1035 970C1035 942.39 1057.39 920 1085 920Z" fill="#FF375F"/>
<path id="Vector_178" d="M1365 970V1020H1265V970C1265 942.39 1287.39 920 1315 920C1342.61 920 1365 942.39 1365 970Z" fill="#30D158"/>
<path id="Vector_179" d="M1495 970V920H1595V970C1595 997.61 1572.61 1020 1545 1020C1517.39 1020 1495 997.61 1495 970Z" fill="#FFD60A"/>
<path id="Vector_180" d="M1725 970V920H1825V970C1825 997.61 1802.61 1020 1775 1020C1747.38 1020 1725 997.61 1725 970Z" fill="#0A84FF"/>
</g>
</g>
</svg>
